<svg xmlns="http://www.w3.org/2000/svg" width="560" height="300" viewBox="0 0 560 300">
  <!-- 样稿 2/4：灰鲭鲨级驱逐舰（掠食者武装 · 标准驱逐舰，玩家最熟的主力）
       风格基线：线稿 + 内部面板线 + 色点缀；船头朝右；双引擎口左端 -->
  <defs>
    <style>
      .sky { fill:#0b1016 }
      .star { fill:#dfe9f2; opacity:.5 }
      .hull { fill:none; stroke:#dfe9f2; stroke-width:2.2; stroke-linejoin:round }
      .panel { fill:none; stroke:#dfe9f2; stroke-width:1; opacity:.4 }
      .acc  { fill:none; stroke:#ff8373; stroke-width:1.6 }
      .accf { fill:#ff8373 }
      .warm { fill:#ffd98a }
      .note { fill:#8aa0b8; font: 11px monospace }
    </style>
  </defs>
  <rect class="sky" width="560" height="300" rx="14"/>
  <circle class="star" cx="60" cy="50" r="1.2"/><circle class="star" cx="505" cy="72" r="1"/><circle class="star" cx="486" cy="226" r="1.3"/><circle class="star" cx="70" cy="250" r="1"/><circle class="star" cx="300" cy="36" r="1"/><circle class="star" cx="180" cy="262" r="1.1"/><circle class="star" cx="524" cy="150" r="1"/>

  <g transform="translate(40 76) scale(2.2)">
    <!-- 尾焰（双引擎，喷口 x38-50，焰贴喷口向左） -->
    <path class="warm" d="M36 47 L22 49.5 L36 52 Z" opacity=".9"/>
    <path class="warm" d="M36 63 L22 65.5 L36 68 Z" opacity=".9"/>
    <!-- 长扁平主舰体（驱逐：低趴长身；舰艏 = 单点流线锐锥 x236，尾端平切喷口面 x52，
         2026-09-09 方向可读性修正 v2——尖头平尾，消除鱼尾状舰艏误读） -->
    <path class="hull" d="M236 56 L198 36 L118 36 C86 36 66 44 58 50 L52 50 L52 62 L58 66 C66 72 86 76 118 76 L190 76 Z"/>
    <!-- 前掠翼（上/下，船长 2026-09-09 确认恢复；舰艏 = 流线锐锥 x236 定稿 v3） -->
    <path class="hull" d="M104 36 L132 15 L142 15 L122 36"/>
    <path class="hull" d="M104 76 L132 97 L142 97 L122 76"/>
    <!-- 双引擎喷口（上/下，贴平切尾端 x52 外侧） -->
    <path class="hull" d="M38 46 h12 v8 h-12 z M38 60 h12 v8 h-12 z" opacity=".85"/>
    <path class="warm" d="M38 48 h6 v4 h-6 z M38 62 h6 v4 h-6 z"/>
    <!-- 甲板主炮 ×2（中/后脊炮塔 + 炮管朝右） -->
    <path class="hull" d="M138 42 h12 v8 h-12 z"/>
    <path class="hull" d="M150 42 L194 42" stroke-width="2.6"/>
    <path class="acc"  d="M194 42 L200 42"/>
    <path class="hull" d="M92 43 h10 v7 h-10 z"/>
    <path class="hull" d="M102 43 L122 44" stroke-width="2.2"/>
    <!-- 侧舷小炮位 -->
    <path class="hull" d="M158 62 h8 v4 h-8 z M164 62 v7"/>
    <path class="hull" d="M112 63 h6 v4 h-6 z M116 63 v6"/>
    <!-- 舰桥窗列 -->
    <path class="panel" d="M146 47 h16 v7 h-16 z M148 48.5 h12 M148 52 h12"/>
    <!-- 船身面板线 -->
    <path class="panel" d="M80 48 h36 M80 64 h36 M126 44 v24 M104 55 h76"/>
    <!-- 舷灯 -->
    <circle class="accf" cx="98" cy="56" r="1.4"/>
    <circle class="warm" cx="150" cy="66" r="1"/>
  </g>

  <text class="note" x="40" y="286">灰鲭鲨级驱逐舰 · sh-mako · 驱逐 T2 — 样稿 B（低趴长身 + 脊炮 ×2 + 上下双引擎）</text>
</svg>
